<?xml version="1.0" encoding="UTF-8"?><svg id="_レイヤー_2" xmlns="http://www.w3.org/2000/svg" viewBox="0 0 209.82 188.99"><defs><style>.cls-1{fill:#fff;}</style></defs><g id="_レイヤー_1-2"><path class="cls-1" d="M104.91,15c2.16,0,7.53.61,10.77,6.22l77.44,134.13c3.24,5.61,1.08,10.56,0,12.43-1.08,1.87-4.29,6.22-10.77,6.22H27.47c-6.48,0-9.69-4.35-10.77-6.22-1.08-1.87-3.24-6.82,0-12.43L94.15,21.22c3.24-5.61,8.61-6.22,10.77-6.22M104.91,0c-9.24,0-18.48,4.57-23.76,13.72L3.72,147.84c-10.56,18.29,2.64,41.15,23.76,41.15h154.88c21.12,0,34.31-22.86,23.76-41.15L128.67,13.72c-5.28-9.14-14.52-13.72-23.76-13.72h0Z"/><path class="cls-1" d="M104.91,59.95c31.44,0,57.02,25.58,57.02,57.02s-25.58,57.02-57.02,57.02-57.02-25.58-57.02-57.02,25.58-57.02,57.02-57.02M104.91,44.95c-39.77,0-72.02,32.24-72.02,72.02s32.24,72.02,72.02,72.02,72.02-32.24,72.02-72.02-32.24-72.02-72.02-72.02h0Z"/></g></svg>