<?xml version="1.0" encoding="UTF-8"?><svg id="_レイヤー_2" xmlns="http://www.w3.org/2000/svg" viewBox="0 0 454.77 275.84"><defs><style>.cls-1{fill:#231815;}</style></defs><g id="_レイヤー_1-2"><path class="cls-1" d="M38.38,178.11c.25.61.69,1.17,1.33,1.68.64.51,1.53.97,2.67,1.38,1.13.41,2.59.81,4.37,1.17,3.59.8,6.23,1.9,7.93,3.32,1.7,1.41,2.55,3.36,2.55,5.85,0,1.38-.27,2.64-.82,3.78-.54,1.14-1.3,2.1-2.25,2.9s-2.11,1.41-3.46,1.84c-1.35.43-2.82.64-4.41.64-2.58,0-4.93-.42-7.06-1.25-2.13-.83-4.16-2.12-6.09-3.86l2.25-2.67c1.69,1.53,3.39,2.68,5.1,3.43,1.72.75,3.69,1.13,5.93,1.13s3.92-.51,5.22-1.52c1.3-1.01,1.95-2.35,1.95-4.01,0-.77-.12-1.45-.37-2.05-.25-.6-.68-1.14-1.29-1.63-.61-.49-1.47-.94-2.56-1.34-1.09-.4-2.48-.78-4.17-1.15-1.84-.4-3.45-.86-4.82-1.38-1.37-.52-2.5-1.15-3.39-1.89-.89-.74-1.55-1.6-1.98-2.58-.43-.98-.65-2.15-.65-3.5s.26-2.47.78-3.55c.52-1.07,1.26-2,2.21-2.79.95-.78,2.07-1.4,3.36-1.84,1.29-.45,2.7-.67,4.23-.67,2.36,0,4.42.33,6.19.98,1.76.65,3.47,1.63,5.13,2.93l-2.12,2.81c-1.5-1.23-3.01-2.12-4.53-2.67-1.52-.55-3.1-.83-4.76-.83-1.04,0-1.99.14-2.83.41-.84.28-1.56.65-2.16,1.11s-1.06,1.01-1.38,1.66c-.32.65-.48,1.34-.48,2.07s.12,1.46.37,2.07Z"/><path class="cls-1" d="M119.09,200.22h-3.63v-28.83h-10.81v-3.36h25.25v3.36h-10.81v28.83Z"/><path class="cls-1" d="M205.36,186.47c0,2.36-.32,4.43-.97,6.21-.64,1.78-1.56,3.27-2.74,4.46-1.18,1.2-2.59,2.09-4.23,2.69-1.64.6-3.47.9-5.5.9s-3.81-.3-5.45-.9c-1.64-.6-3.05-1.49-4.23-2.67-1.18-1.18-2.09-2.64-2.74-4.39s-.97-3.76-.97-6.02v-18.72h3.63v18.49c0,3.5.87,6.18,2.6,8.05,1.73,1.87,4.15,2.81,7.24,2.81s5.33-.89,7.08-2.67c1.75-1.78,2.62-4.43,2.62-7.96v-18.72h3.63v18.44Z"/><path class="cls-1" d="M283.31,190.45c-.83,1.98-2,3.69-3.52,5.13-1.52,1.44-3.33,2.58-5.43,3.4-2.1.83-4.41,1.24-6.92,1.24h-11.18v-32.19h11.18c2.51,0,4.82.41,6.92,1.22,2.1.81,3.91,1.94,5.43,3.38,1.52,1.44,2.69,3.14,3.52,5.1.83,1.96,1.24,4.08,1.24,6.35s-.41,4.39-1.24,6.37ZM279.84,179.16c-.63-1.56-1.52-2.92-2.67-4.07-1.15-1.15-2.55-2.05-4.21-2.71-1.66-.66-3.5-.99-5.52-.99h-7.54v25.48h7.54c2.02,0,3.86-.32,5.52-.97,1.66-.64,3.06-1.54,4.21-2.69s2.04-2.49,2.67-4.02c.63-1.53.94-3.2.94-5.01s-.31-3.45-.94-5.01Z"/><path class="cls-1" d="M338.5,168.03v32.19h-3.63v-32.19h3.63Z"/><path class="cls-1" d="M420.45,190.45c-.8,2.01-1.92,3.78-3.36,5.31-1.44,1.53-3.17,2.75-5.2,3.66-2.02.9-4.26,1.36-6.71,1.36s-4.68-.44-6.69-1.33c-2.01-.89-3.73-2.09-5.17-3.61-1.44-1.52-2.55-3.28-3.33-5.29-.78-2.01-1.17-4.13-1.17-6.37s.4-4.36,1.2-6.37c.8-2.01,1.92-3.78,3.36-5.31,1.44-1.53,3.17-2.75,5.2-3.66,2.02-.9,4.26-1.36,6.71-1.36s4.68.44,6.69,1.33c2.01.89,3.73,2.09,5.17,3.61,1.44,1.52,2.55,3.28,3.33,5.29.78,2.01,1.17,4.13,1.17,6.37s-.4,4.36-1.2,6.37ZM416.93,178.97c-.63-1.62-1.51-3.04-2.64-4.23-1.13-1.2-2.48-2.15-4.02-2.85-1.55-.71-3.24-1.06-5.08-1.06s-3.53.35-5.08,1.03c-1.55.69-2.87,1.63-3.98,2.83-1.1,1.2-1.97,2.6-2.6,4.21-.63,1.61-.94,3.33-.94,5.17s.31,3.57.94,5.2c.63,1.63,1.51,3.04,2.64,4.23,1.13,1.2,2.48,2.15,4.02,2.85,1.55.71,3.24,1.06,5.08,1.06s3.53-.35,5.08-1.03c1.55-.69,2.87-1.63,3.98-2.83,1.1-1.2,1.97-2.6,2.6-4.21.63-1.61.94-3.33.94-5.17s-.31-3.57-.94-5.2Z"/><path class="cls-1" d="M28.37,275.84c-10.12,0-20.35-3.53-28.37-10.7l8.69-10.41c6.02,4.97,12.32,8.12,19.96,8.12,6.02,0,9.65-2.39,9.65-6.3v-.19c0-3.73-2.29-5.64-13.47-8.5-13.47-3.44-22.16-7.16-22.16-20.44v-.19c0-12.13,9.74-20.15,23.4-20.15,9.74,0,18.05,3.06,24.84,8.5l-7.64,11.08c-5.92-4.11-11.75-6.59-17.38-6.59s-8.6,2.58-8.6,5.83v.19c0,4.39,2.87,5.83,14.42,8.79,13.56,3.53,21.21,8.41,21.21,20.06v.19c0,13.28-10.13,20.73-24.55,20.73Z"/><path class="cls-1" d="M107.56,274.89v-26.84h-27.13v26.84h-14.71v-66.86h14.71v26.46h27.13v-26.46h14.71v66.86h-14.71Z"/><path class="cls-1" d="M138.98,274.89v-66.86h14.71v66.86h-14.71Z"/><path class="cls-1" d="M217.31,274.89l-32.38-42.51v42.51h-14.52v-66.86h13.56l31.33,41.17v-41.17h14.52v66.86h-12.51Z"/><path class="cls-1" d="M271.95,274.89h-26.08v-66.86h26.08c21.01,0,35.53,14.42,35.53,33.24v.19c0,18.82-14.52,33.43-35.53,33.43ZM292.1,241.45c0-11.84-8.12-20.15-20.15-20.15h-11.37v40.31h11.37c12.04,0,20.15-8.12,20.15-19.96v-.19Z"/><path class="cls-1" d="M361.16,274.89l-14.33-21.4h-11.56v21.4h-14.71v-66.86h30.57c15.76,0,25.22,8.31,25.22,22.06v.19c0,10.79-5.83,17.58-14.33,20.73l16.33,23.88h-17.19ZM361.45,230.85c0-6.3-4.39-9.55-11.56-9.55h-14.61v19.2h14.9c7.16,0,11.27-3.82,11.27-9.46v-.19Z"/><path class="cls-1" d="M439.4,274.89l-6.11-15h-28.27l-6.11,15h-15l28.66-67.34h13.56l28.66,67.34h-15.38ZM419.15,225.22l-8.88,21.68h17.77l-8.88-21.68Z"/><path class="cls-1" d="M227.39,11.82c1.7,0,5.93.48,8.48,4.9l61,105.66c2.55,4.42.85,8.32,0,9.79s-3.38,4.9-8.48,4.9h-122c-5.1,0-7.63-3.42-8.48-4.9s-2.55-5.37,0-9.79l61-105.66c2.55-4.42,6.78-4.9,8.48-4.9M227.39,0c-7.28,0-14.55,3.6-18.71,10.8l-61,105.66c-8.32,14.41,2.08,32.41,18.71,32.41h122c16.63,0,27.03-18.01,18.71-32.41L246.1,10.8c-4.16-7.2-11.44-10.8-18.71-10.8h0Z"/><path class="cls-1" d="M227.39,47.23c24.77,0,44.92,20.15,44.92,44.91s-20.15,44.92-44.92,44.92-44.91-20.15-44.91-44.92,20.15-44.91,44.91-44.91M227.39,35.41c-31.33,0-56.73,25.4-56.73,56.73s25.4,56.73,56.73,56.73,56.73-25.4,56.73-56.73-25.4-56.73-56.73-56.73h0Z"/></g></svg>