<?xml version="1.0" encoding="UTF-8"?><svg id="_レイヤー_2" xmlns="http://www.w3.org/2000/svg" viewBox="0 0 335 303.36"><defs><style>.cls-1{fill:#fff;}</style></defs><g id="_レイヤー_1-2"><path class="cls-1" d="M167.5,15.38c2.21,0,7.7.62,11.03,6.36l79.55,137.29c3.33,5.75,1.12,10.84.01,12.75-1.11,1.92-4.4,6.38-11.04,6.38H87.95c-6.65,0-9.94-4.46-11.04-6.38-1.11-1.92-3.32-7,.01-12.75L156.47,21.74c3.32-5.74,8.82-6.36,11.03-6.36M167.5,0c-9.46,0-18.92,4.68-24.34,14.03L63.62,151.32c-10.86,18.75,2.67,42.23,24.34,42.23h159.09c21.67,0,35.2-23.48,24.34-42.23L191.84,14.03c-5.42-9.35-14.88-14.03-24.34-14.03h0Z"/><path class="cls-1" d="M167.5,61.49c32.31,0,58.6,26.17,58.6,58.33s-26.29,58.33-58.6,58.33-58.6-26.17-58.6-58.33,26.29-58.33,58.6-58.33M167.5,46.11c-40.86,0-73.98,33-73.98,73.72s33.12,73.72,73.98,73.72,73.98-33,73.98-73.72-33.12-73.72-73.98-73.72h0Z"/><path class="cls-1" d="M28.27,231.62c.18.45.51.86.98,1.23.47.37,1.13.71,1.96,1.01.83.3,1.91.59,3.22.86,2.64.59,4.59,1.4,5.84,2.43,1.25,1.04,1.88,2.47,1.88,4.29,0,1.02-.2,1.94-.6,2.77-.4.83-.96,1.54-1.66,2.13s-1.55,1.04-2.55,1.35c-.99.31-2.08.47-3.25.47-1.9,0-3.63-.31-5.2-.92-1.57-.61-3.07-1.55-4.49-2.83l1.66-1.96c1.24,1.13,2.5,1.96,3.76,2.51,1.26.55,2.72.83,4.37.83s2.88-.37,3.85-1.12c.96-.74,1.44-1.72,1.44-2.94,0-.56-.09-1.06-.27-1.5-.18-.44-.5-.84-.95-1.2s-1.08-.69-1.88-.98c-.8-.29-1.83-.58-3.07-.85-1.36-.29-2.54-.63-3.55-1.01-1.01-.38-1.84-.84-2.5-1.39-.66-.54-1.14-1.17-1.46-1.89-.32-.72-.48-1.58-.48-2.57s.19-1.81.58-2.6c.38-.79.93-1.47,1.63-2.05.7-.58,1.52-1.03,2.47-1.35s1.99-.49,3.12-.49c1.74,0,3.26.24,4.56.72,1.3.48,2.56,1.19,3.78,2.15l-1.56,2.06c-1.11-.9-2.22-1.55-3.34-1.96-1.12-.4-2.29-.61-3.51-.61-.77,0-1.46.1-2.08.3-.62.2-1.15.47-1.59.81-.44.34-.78.74-1.02,1.22-.24.47-.36.98-.36,1.52s.09,1.07.27,1.52Z"/><path class="cls-1" d="M87.72,247.85h-2.68v-21.17h-7.96v-2.46h18.6v2.46h-7.96v21.17Z"/><path class="cls-1" d="M151.27,237.76c0,1.73-.24,3.25-.71,4.56-.47,1.31-1.15,2.4-2.02,3.27-.87.88-1.91,1.54-3.12,1.97-1.21.44-2.56.66-4.05.66s-2.81-.22-4.01-.66c-1.21-.44-2.25-1.09-3.12-1.96s-1.54-1.94-2.02-3.22c-.47-1.28-.71-2.76-.71-4.42v-13.74h2.68v13.57c0,2.57.64,4.54,1.91,5.91,1.28,1.37,3.05,2.06,5.34,2.06s3.93-.65,5.22-1.96c1.29-1.3,1.93-3.25,1.93-5.84v-13.74h2.68v13.54Z"/><path class="cls-1" d="M208.69,240.68c-.61,1.45-1.47,2.71-2.59,3.76s-2.45,1.89-4,2.5c-1.55.61-3.25.91-5.1.91h-8.23v-23.63h8.23c1.85,0,3.55.3,5.1.89,1.55.6,2.88,1.42,4,2.48,1.12,1.06,1.98,2.31,2.59,3.75.61,1.44.91,2.99.91,4.66s-.3,3.22-.91,4.68ZM206.14,232.39c-.46-1.15-1.12-2.14-1.96-2.99-.85-.84-1.88-1.51-3.1-1.99-1.22-.48-2.57-.73-4.06-.73h-5.56v18.7h5.56c1.49,0,2.85-.24,4.06-.71,1.22-.47,2.25-1.13,3.1-1.98.85-.84,1.5-1.83,1.96-2.95.46-1.12.69-2.35.69-3.68s-.23-2.53-.69-3.68Z"/><path class="cls-1" d="M249.35,224.22v23.63h-2.68v-23.63h2.68Z"/><path class="cls-1" d="M309.71,240.68c-.59,1.47-1.41,2.77-2.47,3.9-1.06,1.13-2.34,2.02-3.83,2.68s-3.14,1-4.95,1-3.45-.33-4.93-.98c-1.48-.65-2.75-1.54-3.81-2.65-1.06-1.11-1.88-2.41-2.46-3.88-.58-1.47-.86-3.03-.86-4.68s.29-3.2.88-4.68c.59-1.47,1.41-2.77,2.47-3.9,1.06-1.12,2.34-2.02,3.83-2.68,1.49-.66,3.14-1,4.95-1s3.45.33,4.93.98c1.48.65,2.75,1.54,3.81,2.65,1.06,1.11,1.88,2.41,2.46,3.88.58,1.47.86,3.03.86,4.68s-.29,3.2-.88,4.68ZM307.12,232.26c-.46-1.19-1.11-2.23-1.95-3.11-.84-.88-1.82-1.57-2.96-2.09-1.14-.52-2.39-.78-3.74-.78s-2.6.25-3.74.76-2.12,1.2-2.93,2.08c-.81.88-1.45,1.91-1.91,3.09-.46,1.18-.7,2.45-.7,3.8s.23,2.62.7,3.81c.46,1.19,1.11,2.23,1.95,3.11.83.88,1.82,1.58,2.96,2.09,1.14.52,2.39.78,3.74.78s2.6-.25,3.74-.76c1.14-.51,2.12-1.2,2.93-2.08.81-.88,1.45-1.91,1.91-3.09s.7-2.45.7-3.8-.23-2.62-.7-3.81Z"/><path class="cls-1" d="M20.9,303.36c-7.46,0-14.99-2.59-20.9-7.85l6.4-7.64c4.43,3.65,9.08,5.96,14.71,5.96,4.43,0,7.11-1.75,7.11-4.63v-.14c0-2.73-1.69-4.14-9.92-6.24-9.92-2.52-16.32-5.26-16.32-15v-.14c0-8.9,7.18-14.79,17.24-14.79,7.18,0,13.3,2.24,18.29,6.24l-5.63,8.13c-4.36-3.01-8.65-4.84-12.81-4.84s-6.33,1.89-6.33,4.28v.14c0,3.23,2.11,4.28,10.62,6.45,9.99,2.59,15.62,6.17,15.62,14.72v.14c0,9.75-7.46,15.21-18.08,15.21Z"/><path class="cls-1" d="M79.23,302.66v-19.7h-19.98v19.7h-10.83v-49.08h10.83v19.42h19.98v-19.42h10.84v49.08h-10.84Z"/><path class="cls-1" d="M102.38,302.66v-49.08h10.83v49.08h-10.83Z"/><path class="cls-1" d="M160.07,302.66l-23.85-31.2v31.2h-10.69v-49.08h9.99l23.08,30.22v-30.22h10.69v49.08h-9.22Z"/><path class="cls-1" d="M200.32,302.66h-19.21v-49.08h19.21c15.48,0,26.17,10.59,26.17,24.4v.14c0,13.81-10.69,24.54-26.17,24.54ZM215.17,278.12c0-8.69-5.98-14.79-14.85-14.79h-8.37v29.59h8.37c8.87,0,14.85-5.96,14.85-14.65v-.14Z"/><path class="cls-1" d="M266.04,302.66l-10.55-15.71h-8.51v15.71h-10.83v-49.08h22.51c11.61,0,18.57,6.1,18.57,16.2v.14c0,7.92-4.29,12.9-10.55,15.21l12.03,17.53h-12.66ZM266.25,270.34c0-4.63-3.24-7.01-8.51-7.01h-10.76v14.09h10.98c5.28,0,8.3-2.8,8.3-6.94v-.14Z"/><path class="cls-1" d="M323.67,302.66l-4.5-11.01h-20.83l-4.5,11.01h-11.05l21.11-49.43h9.99l21.11,49.43h-11.33ZM308.75,266.2l-6.54,15.92h13.09l-6.54-15.92Z"/></g></svg>