<?xml version="1.0" encoding="UTF-8"?><svg id="_レイヤー_2" xmlns="http://www.w3.org/2000/svg" viewBox="0 0 165.28 148.87"><defs><style>.cls-1{fill:#231815;}</style></defs><g id="_レイヤー_1-2"><path class="cls-1" d="M82.64,16.11c1.19,0,3.38.36,4.76,2.75l61,105.66c1.38,2.39.59,4.47,0,5.5-.59,1.03-2,2.75-4.76,2.75H21.64c-2.76,0-4.17-1.72-4.76-2.75-.59-1.03-1.38-3.11,0-5.5L77.88,18.86c1.38-2.39,3.58-2.75,4.76-2.75M82.64,0c-7.28,0-14.55,3.6-18.71,10.8L2.93,116.46c-8.32,14.41,2.08,32.41,18.71,32.41h122c16.63,0,27.03-18.01,18.71-32.41L101.36,10.8c-4.16-7.2-11.44-10.8-18.71-10.8h0Z"/><path class="cls-1" d="M82.64,53.05c21.55,0,39.09,17.54,39.09,39.09s-17.54,39.09-39.09,39.09-39.09-17.54-39.09-39.09,17.54-39.09,39.09-39.09M82.64,35.41c-31.33,0-56.73,25.4-56.73,56.73s25.4,56.73,56.73,56.73,56.73-25.4,56.73-56.73-25.4-56.73-56.73-56.73h0Z"/></g></svg>