<?xml version="1.0" encoding="UTF-8"?>
<svg id="_レイヤー_2" xmlns="http://www.w3.org/2000/svg" version="1.1" viewBox="0 0 165.3 148.9">
  <!-- Generator: Adobe Illustrator 29.3.1, SVG Export Plug-In . SVG Version: 2.1.0 Build 151)  -->
  <defs>
    <style>
      .st0 {
        fill: #fff;
      }
    </style>
  </defs>
  <g id="_レイヤー_1-2">
    <path class="st0" d="M82.6,16.1c1.2,0,3.4.4,4.8,2.8l61,105.7c1.4,2.4.6,4.5,0,5.5s-2,2.8-4.8,2.8H21.6c-2.8,0-4.2-1.7-4.8-2.8s-1.4-3.1,0-5.5L77.9,18.9c1.4-2.4,3.6-2.8,4.8-2.8M82.6,0c-7.3,0-14.6,3.6-18.7,10.8L2.9,116.5c-8.3,14.4,2.1,32.4,18.7,32.4h122c16.6,0,27-18,18.7-32.4L101.4,10.8c-4.2-7.2-11.4-10.8-18.7-10.8h0Z"/>
    <path class="st0" d="M82.6,53c21.6,0,39.1,17.5,39.1,39.1s-17.5,39.1-39.1,39.1-39.1-17.5-39.1-39.1,17.5-39.1,39.1-39.1M82.6,35.4c-31.3,0-56.7,25.4-56.7,56.7s25.4,56.7,56.7,56.7,56.7-25.4,56.7-56.7-25.4-56.7-56.7-56.7h0Z"/>
  </g>
</svg>