<?xml version="1.0" encoding="UTF-8"?><svg id="_レイヤー_2" xmlns="http://www.w3.org/2000/svg" viewBox="0 0 339.69 303.69"><defs><style>.cls-1{fill:#231815;}</style></defs><g id="_レイヤー_1-2"><path class="cls-1" d="M28.66,230.82c.18.46.52.88,1,1.25.48.38,1.15.72,1.99,1.03.85.31,1.93.6,3.26.88,2.68.59,4.65,1.42,5.93,2.47,1.27,1.05,1.91,2.51,1.91,4.36,0,1.03-.2,1.97-.61,2.82-.41.85-.97,1.57-1.68,2.16-.71.6-1.58,1.05-2.58,1.37s-2.11.48-3.3.48c-1.92,0-3.68-.31-5.27-.93s-3.11-1.58-4.55-2.88l1.68-1.99c1.26,1.14,2.53,2,3.81,2.55,1.28.56,2.76.84,4.43.84s2.92-.38,3.9-1.13c.97-.76,1.46-1.75,1.46-2.99,0-.57-.09-1.08-.28-1.53-.18-.45-.5-.85-.96-1.22-.46-.37-1.1-.7-1.91-1s-1.85-.58-3.12-.86c-1.38-.3-2.58-.64-3.6-1.03s-1.87-.86-2.53-1.41c-.67-.55-1.16-1.19-1.48-1.92-.32-.73-.48-1.6-.48-2.61s.19-1.84.58-2.64c.39-.8.94-1.49,1.65-2.08s1.55-1.04,2.51-1.37,2.01-.5,3.16-.5c1.76,0,3.3.24,4.62.73s2.59,1.21,3.83,2.19l-1.58,2.09c-1.12-.91-2.25-1.58-3.38-1.99-1.13-.41-2.32-.62-3.56-.62-.78,0-1.48.1-2.11.31-.63.21-1.17.48-1.61.83-.45.34-.79.75-1.03,1.24-.24.48-.36,1-.36,1.55s.09,1.09.27,1.54Z"/><path class="cls-1" d="M88.95,247.31h-2.71v-21.5h-8.07v-2.5h18.86v2.5h-8.07v21.5Z"/><path class="cls-1" d="M153.39,237.06c0,1.76-.24,3.3-.72,4.63-.48,1.33-1.16,2.43-2.04,3.33-.88.89-1.94,1.56-3.16,2.01-1.23.45-2.59.67-4.11.67s-2.85-.22-4.07-.67c-1.23-.45-2.28-1.11-3.16-1.99-.88-.88-1.56-1.97-2.04-3.27-.48-1.3-.72-2.8-.72-4.49v-13.96h2.71v13.78c0,2.61.65,4.61,1.94,6,1.29,1.39,3.1,2.09,5.41,2.09s3.98-.66,5.29-1.99c1.31-1.33,1.96-3.3,1.96-5.93v-13.96h2.71v13.75Z"/><path class="cls-1" d="M211.61,240.02c-.62,1.47-1.49,2.75-2.63,3.82s-2.49,1.92-4.05,2.54-3.29.93-5.17.93h-8.35v-24h8.35c1.88,0,3.6.3,5.17.91,1.57.61,2.92,1.45,4.05,2.52,1.13,1.08,2.01,2.34,2.63,3.81s.93,3.04.93,4.73-.31,3.28-.93,4.75ZM209.02,231.6c-.47-1.17-1.13-2.18-1.99-3.03-.86-.86-1.91-1.53-3.14-2.02-1.24-.49-2.61-.74-4.12-.74h-5.63v19h5.63c1.51,0,2.88-.24,4.12-.72,1.24-.48,2.28-1.15,3.14-2.01.86-.86,1.52-1.86,1.99-3,.47-1.14.7-2.39.7-3.74s-.23-2.57-.7-3.74Z"/><path class="cls-1" d="M252.83,223.31v24h-2.71v-24h2.71Z"/><path class="cls-1" d="M314.04,240.02c-.6,1.5-1.43,2.82-2.51,3.96-1.08,1.14-2.37,2.05-3.88,2.73-1.51.67-3.18,1.01-5.02,1.01s-3.5-.33-5-.99-2.79-1.56-3.86-2.69c-1.08-1.13-1.91-2.45-2.49-3.94s-.88-3.08-.88-4.75.3-3.25.89-4.75c.6-1.5,1.43-2.82,2.51-3.96,1.08-1.14,2.37-2.05,3.88-2.73,1.51-.67,3.18-1.01,5.01-1.01s3.5.33,5,.99,2.79,1.56,3.86,2.69,1.91,2.45,2.49,3.94c.58,1.5.88,3.08.88,4.75s-.3,3.25-.89,4.75ZM311.42,231.47c-.47-1.21-1.13-2.26-1.97-3.16-.85-.89-1.85-1.6-3.01-2.13-1.16-.53-2.42-.79-3.8-.79s-2.64.26-3.8.77-2.15,1.22-2.97,2.11c-.83.89-1.47,1.94-1.94,3.14s-.7,2.49-.7,3.86.23,2.66.7,3.88c.47,1.21,1.13,2.26,1.98,3.15.85.89,1.85,1.6,3.01,2.13,1.16.53,2.42.79,3.79.79s2.64-.26,3.8-.77,2.15-1.22,2.97-2.11,1.47-1.94,1.94-3.14c.47-1.2.7-2.49.7-3.86s-.24-2.66-.7-3.88Z"/><path class="cls-1" d="M21.19,303.69c-7.56,0-15.2-2.63-21.19-7.98l6.49-7.76c4.5,3.7,9.2,6.05,14.91,6.05,4.5,0,7.21-1.78,7.21-4.7v-.14c0-2.78-1.71-4.2-10.06-6.34-10.06-2.56-16.55-5.34-16.55-15.24v-.14c0-9.05,7.28-15.03,17.48-15.03,7.28,0,13.49,2.28,18.55,6.34l-5.71,8.26c-4.42-3.06-8.78-4.92-12.99-4.92s-6.42,1.92-6.42,4.34v.14c0,3.28,2.14,4.34,10.77,6.55,10.13,2.64,15.84,6.27,15.84,14.96v.14c0,9.9-7.56,15.46-18.34,15.46Z"/><path class="cls-1" d="M80.34,302.98v-20.01h-20.26v20.01h-10.99v-49.86h10.99v19.73h20.26v-19.73h10.99v49.86h-10.99Z"/><path class="cls-1" d="M103.81,302.98v-49.86h10.99v49.86h-10.99Z"/><path class="cls-1" d="M162.32,302.98l-24.19-31.7v31.7h-10.85v-49.86h10.13l23.4,30.7v-30.7h10.84v49.86h-9.35Z"/><path class="cls-1" d="M203.13,302.98h-19.48v-49.86h19.48c15.7,0,26.54,10.75,26.54,24.79v.14c0,14.03-10.85,24.93-26.54,24.93ZM218.18,278.05c0-8.83-6.07-15.03-15.06-15.03h-8.49v30.06h8.49c8.99,0,15.06-6.05,15.06-14.89v-.14Z"/><path class="cls-1" d="M269.77,302.98l-10.7-15.96h-8.63v15.96h-10.99v-49.86h22.83c11.77,0,18.84,6.2,18.84,16.45v.14c0,8.05-4.35,13.11-10.7,15.46l12.2,17.81h-12.84ZM269.98,270.15c0-4.7-3.28-7.12-8.63-7.12h-10.92v14.32h11.13c5.35,0,8.42-2.85,8.42-7.05v-.14Z"/><path class="cls-1" d="M328.2,302.98l-4.57-11.18h-21.12l-4.57,11.18h-11.2l21.41-50.22h10.13l21.41,50.22h-11.49ZM313.07,265.94l-6.64,16.17h13.27l-6.63-16.17Z"/><path class="cls-1" d="M169.84,18.51c1.68,0,5.87.47,8.4,4.84l79.72,137.84c2.53,4.38.85,8.24,0,9.7-.84,1.46-3.35,4.85-8.4,4.85H90.12c-5.06,0-7.56-3.39-8.4-4.85-.84-1.46-2.53-5.33,0-9.7L161.45,23.36c2.53-4.37,6.71-4.84,8.4-4.84M169.84,0c-9.5,0-18.99,4.7-24.42,14.09l-79.72,137.84c-10.88,18.81,2.69,42.34,24.42,42.34h159.44c21.73,0,35.3-23.53,24.42-42.34L194.27,14.09c-5.43-9.39-14.93-14.09-24.42-14.09h0Z"/><path class="cls-1" d="M169.84,64.76c30.67,0,55.62,24.89,55.62,55.5s-24.95,55.5-55.62,55.5-55.62-24.9-55.62-55.5,24.95-55.5,55.62-55.5M169.84,46.25c-40.95,0-74.14,33.14-74.14,74.01s33.19,74.01,74.14,74.01,74.14-33.14,74.14-74.01-33.19-74.01-74.14-74.01h0Z"/></g></svg>