<?xml version="1.0" encoding="UTF-8"?>
<svg id="_レイヤー_2" xmlns="http://www.w3.org/2000/svg" version="1.1" viewBox="0 0 454.8 275.8">
  <!-- Generator: Adobe Illustrator 29.3.1, SVG Export Plug-In . SVG Version: 2.1.0 Build 151)  -->
  <defs>
    <style>
      .st0 {
        fill: #fff;
      }
    </style>
  </defs>
  <g id="_レイヤー_1-2">
    <path class="st0" d="M227.4,16.1c1.2,0,3.4.4,4.8,2.8l61,105.7c1.4,2.4.6,4.5,0,5.5s-2,2.8-4.8,2.8h-122c-2.8,0-4.2-1.7-4.8-2.8s-1.4-3.1,0-5.5l61-105.7c1.4-2.4,3.6-2.8,4.8-2.8M227.4,0C220.1,0,212.8,3.6,208.7,10.8l-61,105.7c-8.3,14.4,2.1,32.4,18.7,32.4h122c16.6,0,27-18,18.7-32.4L246.1,10.8C241.9,3.6,234.7,0,227.4,0h0Z"/>
    <path class="st0" d="M227.4,53c21.6,0,39.1,17.5,39.1,39.1s-17.5,39.1-39.1,39.1-39.1-17.5-39.1-39.1,17.5-39.1,39.1-39.1M227.4,35.4c-31.3,0-56.7,25.4-56.7,56.7s25.4,56.7,56.7,56.7,56.7-25.4,56.7-56.7-25.4-56.7-56.7-56.7h0Z"/>
    <path class="st0" d="M38.4,178.1c.2.6.7,1.2,1.3,1.7.6.5,1.5,1,2.7,1.4,1.1.4,2.6.8,4.4,1.2,3.6.8,6.2,1.9,7.9,3.3,1.7,1.4,2.5,3.4,2.5,5.9s-.3,2.6-.8,3.8c-.5,1.1-1.3,2.1-2.2,2.9s-2.1,1.4-3.5,1.8-2.8.6-4.4.6c-2.6,0-4.9-.4-7.1-1.2s-4.2-2.1-6.1-3.9l2.2-2.7c1.7,1.5,3.4,2.7,5.1,3.4,1.7.8,3.7,1.1,5.9,1.1s3.9-.5,5.2-1.5c1.3-1,2-2.4,2-4s-.1-1.4-.4-2.1-.7-1.1-1.3-1.6-1.5-.9-2.6-1.3-2.5-.8-4.2-1.1c-1.8-.4-3.5-.9-4.8-1.4s-2.5-1.1-3.4-1.9-1.5-1.6-2-2.6-.7-2.1-.7-3.5.3-2.5.8-3.6c.5-1.1,1.3-2,2.2-2.8,1-.8,2.1-1.4,3.4-1.8,1.3-.4,2.7-.7,4.2-.7,2.4,0,4.4.3,6.2,1,1.8.6,3.5,1.6,5.1,2.9l-2.1,2.8c-1.5-1.2-3-2.1-4.5-2.7s-3.1-.8-4.8-.8-2,.1-2.8.4c-.8.3-1.6.6-2.2,1.1s-1.1,1-1.4,1.7c-.3.6-.5,1.3-.5,2.1s.1,1.5.4,2.1h0Z"/>
    <path class="st0" d="M119.1,200.2h-3.6v-28.8h-10.8v-3.4h25.2v3.4h-10.8v28.8Z"/>
    <path class="st0" d="M205.4,186.5c0,2.4-.3,4.4-1,6.2-.6,1.8-1.6,3.3-2.7,4.5-1.2,1.2-2.6,2.1-4.2,2.7s-3.5.9-5.5.9-3.8-.3-5.4-.9c-1.6-.6-3.1-1.5-4.2-2.7s-2.1-2.6-2.7-4.4-1-3.8-1-6v-18.7h3.6v18.5c0,3.5.9,6.2,2.6,8.1,1.7,1.9,4.1,2.8,7.2,2.8s5.3-.9,7.1-2.7,2.6-4.4,2.6-8v-18.7h3.6v18.4h0Z"/>
    <path class="st0" d="M283.3,190.4c-.8,2-2,3.7-3.5,5.1s-3.3,2.6-5.4,3.4c-2.1.8-4.4,1.2-6.9,1.2h-11.2v-32.2h11.2c2.5,0,4.8.4,6.9,1.2s3.9,1.9,5.4,3.4,2.7,3.1,3.5,5.1,1.2,4.1,1.2,6.4-.4,4.4-1.2,6.4h0ZM279.8,179.2c-.6-1.6-1.5-2.9-2.7-4.1-1.1-1.1-2.5-2.1-4.2-2.7s-3.5-1-5.5-1h-7.5v25.5h7.5c2,0,3.9-.3,5.5-1,1.7-.6,3.1-1.5,4.2-2.7s2-2.5,2.7-4,.9-3.2.9-5-.3-3.4-.9-5h0Z"/>
    <path class="st0" d="M338.5,168v32.2h-3.6v-32.2h3.6Z"/>
    <path class="st0" d="M420.5,190.4c-.8,2-1.9,3.8-3.4,5.3-1.4,1.5-3.2,2.8-5.2,3.7-2,.9-4.3,1.4-6.7,1.4s-4.7-.4-6.7-1.3-3.7-2.1-5.2-3.6-2.5-3.3-3.3-5.3-1.2-4.1-1.2-6.4.4-4.4,1.2-6.4c.8-2,1.9-3.8,3.4-5.3,1.4-1.5,3.2-2.8,5.2-3.7,2-.9,4.3-1.4,6.7-1.4s4.7.4,6.7,1.3,3.7,2.1,5.2,3.6,2.5,3.3,3.3,5.3,1.2,4.1,1.2,6.4-.4,4.4-1.2,6.4ZM416.9,179c-.6-1.6-1.5-3-2.6-4.2-1.1-1.2-2.5-2.1-4-2.9-1.5-.7-3.2-1.1-5.1-1.1s-3.5.4-5.1,1c-1.5.7-2.9,1.6-4,2.8-1.1,1.2-2,2.6-2.6,4.2s-.9,3.3-.9,5.2.3,3.6.9,5.2c.6,1.6,1.5,3,2.6,4.2,1.1,1.2,2.5,2.1,4,2.9,1.5.7,3.2,1.1,5.1,1.1s3.5-.4,5.1-1c1.5-.7,2.9-1.6,4-2.8,1.1-1.2,2-2.6,2.6-4.2s.9-3.3.9-5.2-.3-3.6-.9-5.2Z"/>
    <path class="st0" d="M28.4,275.8c-10.1,0-20.4-3.5-28.4-10.7l8.7-10.4c6,5,12.3,8.1,20,8.1s9.6-2.4,9.6-6.3v-.2c0-3.7-2.3-5.6-13.5-8.5-13.5-3.4-22.2-7.2-22.2-20.4v-.2c0-12.1,9.7-20.1,23.4-20.1s18.1,3.1,24.8,8.5l-7.6,11.1c-5.9-4.1-11.8-6.6-17.4-6.6s-8.6,2.6-8.6,5.8v.2c0,4.4,2.9,5.8,14.4,8.8,13.6,3.5,21.2,8.4,21.2,20.1v.2c0,13.3-10.1,20.7-24.5,20.7h0Z"/>
    <path class="st0" d="M107.6,274.9v-26.8h-27.1v26.8h-14.7v-66.9h14.7v26.5h27.1v-26.5h14.7v66.9h-14.7Z"/>
    <path class="st0" d="M139,274.9v-66.9h14.7v66.9h-14.7Z"/>
    <path class="st0" d="M217.3,274.9l-32.4-42.5v42.5h-14.5v-66.9h13.6l31.3,41.2v-41.2h14.5v66.9h-12.5Z"/>
    <path class="st0" d="M272,274.9h-26.1v-66.9h26.1c21,0,35.5,14.4,35.5,33.2v.2c0,18.8-14.5,33.4-35.5,33.4ZM292.1,241.4c0-11.8-8.1-20.1-20.1-20.1h-11.4v40.3h11.4c12,0,20.1-8.1,20.1-20v-.2h0Z"/>
    <path class="st0" d="M361.2,274.9l-14.3-21.4h-11.6v21.4h-14.7v-66.9h30.6c15.8,0,25.2,8.3,25.2,22.1v.2c0,10.8-5.8,17.6-14.3,20.7l16.3,23.9h-17.2ZM361.5,230.9c0-6.3-4.4-9.6-11.6-9.6h-14.6v19.2h14.9c7.2,0,11.3-3.8,11.3-9.5v-.2h0Z"/>
    <path class="st0" d="M439.4,274.9l-6.1-15h-28.3l-6.1,15h-15l28.7-67.3h13.6l28.7,67.3h-15.4ZM419.1,225.2l-8.9,21.7h17.8l-8.9-21.7h0Z"/>
  </g>
</svg>